# xmcd CD database file
#
# Track frame offsets:
#	150
#	46440
#	63745
#	85742
#	97780
#	108263
#	127877
#	152964
#	183809
#	209947
#	233926
#	268052
#	289444
#	300352
#	317010
#	330298
#
# Disc length: 4752 seconds
#
# Revision: 0
# Processed by: cddbd v1.5.2PL0 Copyright (c) Steve Scherf et al.
# Submitted via: CDex 1.51
#
DISCID=df128e10
DTITLE=VV.AA. - The Latin Tinge
DYEAR=2010
DGENRE=Jazz
TTITLE0=The George Russell Orchestra - Manhattan-Rico
TTITLE1=Conexion Latina - Mambo Nights
TTITLE2=Paquito D'Rivera - Birks Works
TTITLE3=Rosemary Clooney and Pérez Prado - Sway
TTITLE4=George Shearing Quintet - Mambo Inn
TTITLE5=Italuba II - Distancia
TTITLE6=Bud Powell Trio - Buster Rides Again
TTITLE7=The Fort Apache Band - Wawina Era Wo
TTITLE8=Duke Ellington And His Famous Orchestra - Bakiff
TTITLE9=The Cuban All-Stars - La clave de los primeros
TTITLE10=Sonny Rollins Trio - St. Thomas
TTITLE11=Roberto Fonseca Sextet - Clandestino
TTITLE12=Stan Kenton And His Orchestra - Tequila
TTITLE13=The Cal Tjader Quintet - Viva Cepeda
TTITLE14=Machito And His Afro-Cuban Jazz Ensemble - Tin tin deo
TTITLE15=Dizzy Gillespie And His Orchestra - Cubana Be, Cubana Bop
EXTD=YEAR: 2010
EXTT0=
EXTT1=
EXTT2=
EXTT3=
EXTT4=
EXTT5=
EXTT6=
EXTT7=
EXTT8=
EXTT9=
EXTT10=
EXTT11=
EXTT12=
EXTT13=
EXTT14=
EXTT15=
PLAYORDER=
